<?xml version="1.0" standalone="no"?>
<!DOCTYPE svg PUBLIC "-//W3C//DTD SVG 20010904//EN"
 "http://www.w3.org/TR/2001/REC-SVG-20010904/DTD/svg10.dtd">
<svg version="1.0" xmlns="http://www.w3.org/2000/svg"
 width="417.000000pt" height="417.000000pt" viewBox="0 0 417.000000 417.000000"
 preserveAspectRatio="xMidYMid meet">
<metadata>
Created by potrace 1.14, written by Peter Selinger 2001-2017
</metadata>
<g transform="translate(0.000000,417.000000) scale(0.100000,-0.100000)"
fill="#000000" stroke="none">
<path d="M1830 4155 c-226 -30 -409 -82 -611 -174 -572 -261 -1002 -776 -1154
-1381 -50 -199 -64 -331 -60 -555 2 -99 6 -189 8 -200 2 -11 7 -41 11 -66 12
-81 16 -102 41 -200 54 -210 146 -424 259 -599 73 -114 59 -95 153 -210 163
-200 351 -358 586 -494 54 -31 100 -56 102 -56 3 0 34 -13 69 -30 130 -59 342
-125 466 -145 19 -3 46 -7 60 -10 79 -15 143 -19 300 -19 153 -1 334 9 350 19
3 2 23 6 45 9 83 13 244 58 350 98 603 224 1088 741 1267 1348 61 208 83 366
83 600 0 228 -10 310 -60 505 -154 602 -546 1087 -1100 1360 -123 61 -358 147
-436 159 -20 3 -42 8 -50 10 -18 7 -61 14 -124 22 -27 4 -54 9 -59 12 -19 11
-404 9 -496 -3z m445 -419 c17 -3 48 -7 70 -11 98 -13 239 -51 320 -86 11 -4
45 -18 75 -30 157 -64 361 -203 502 -342 181 -177 309 -378 396 -617 70 -192
96 -346 96 -565 0 -325 -85 -616 -262 -890 -195 -303 -481 -533 -821 -661 -72
-27 -196 -62 -251 -70 -19 -3 -41 -7 -48 -9 -26 -9 -171 -19 -272 -19 -254 0
-450 42 -685 147 -84 37 -265 143 -303 177 -9 8 -33 27 -52 41 -19 15 -67 58
-106 95 -64 61 -95 96 -168 184 -72 88 -193 307 -236 425 -78 217 -105 371
-104 585 1 237 34 406 120 622 119 299 348 578 624 760 173 114 408 212 585
243 17 2 41 7 55 10 14 3 57 8 95 11 39 4 71 8 73 9 5 4 266 -3 297 -9z"/>
<path d="M1010 2746 l0 -139 255 -255 c140 -140 255 -258 255 -262 0 -4 -115
-122 -255 -263 l-255 -255 0 -139 0 -139 138 1 138 1 397 397 397 397 397
-397 397 -397 138 -1 138 -1 0 140 0 139 -255 255 c-140 140 -255 258 -255
262 0 5 115 122 255 262 l255 255 0 139 0 140 -138 -1 -138 -1 -392 -392
c-215 -215 -396 -392 -402 -392 -6 0 -187 177 -402 392 l-392 392 -138 1 -138
1 0 -140z"/>
</g>
</svg>
