<svg xmlns="http://www.w3.org/2000/svg" viewBox="0 0 378.34 378.35"><defs><style>.cls-1{fill:#e40046;}</style></defs><g id="Ebene_2" data-name="Ebene 2"><g id="Ebene_1-2" data-name="Ebene 1"><path class="cls-1" d="M189.17,378.35C84.86,378.35,0,293.48,0,189.17S84.86,0,189.17,0,378.34,84.86,378.34,189.17,293.48,378.35,189.17,378.35Zm0-339.9c-83.11,0-150.72,67.61-150.72,150.72s67.61,150.72,150.72,150.72,150.72-67.61,150.72-150.72S272.28,38.45,189.17,38.45Z"/><polygon class="cls-1" points="91.77 261.42 91.78 236.28 138.87 189.18 91.77 142.08 91.77 116.93 116.9 116.93 189.17 189.18 116.9 261.42 91.77 261.42"/><polygon class="cls-1" points="286.57 116.93 286.56 142.07 239.47 189.16 286.57 236.27 286.57 261.42 261.44 261.41 189.17 189.16 261.45 116.93 286.57 116.93"/></g></g></svg>