<svg id="Ebene_1" data-name="Ebene 1" xmlns="http://www.w3.org/2000/svg" viewBox="0 0 354.33 184.25"><defs><style>.cls-1{fill:#e40046;}</style></defs><path class="cls-1" d="M174.13,75.49H163.64v-24h10.49a7.06,7.06,0,0,1,7,7.11,7.23,7.23,0,0,1-1.91,4.87,7.23,7.23,0,0,1,1.91,4.87A7,7,0,0,1,174.13,75.49Zm0-19.5h-6v5.27h6a2.56,2.56,0,0,0,2.52-2.62A2.59,2.59,0,0,0,174.13,56Zm0,9.77h-6V71h6a2.59,2.59,0,0,0,2.52-2.65A2.56,2.56,0,0,0,174.13,65.76Z"/><path class="cls-1" d="M199,75.49l-1.64-4.87h-8l-1.63,4.87H183l8-24h4.7l8,24Zm-5.65-16.92-2.52,7.59h5.07Z"/><path class="cls-1" d="M223.73,66.78a8.74,8.74,0,0,1-17.47,0V51.53h4.46V66.78a4.28,4.28,0,0,0,8.55,0V51.53h4.46Z"/><path class="cls-1" d="M172.73,104h-3.54a7,7,0,0,1-6.57-4.76l4.23-1.47a2.55,2.55,0,0,0,2.34,1.77h3.54a2.58,2.58,0,0,0,2.52-2.65c0-1.91-2.24-2.28-4.87-2.76-3.67-.65-8.13-1.46-8.13-7a7,7,0,0,1,6.94-7.11h3.54a7,7,0,0,1,6.57,4.76l-4.22,1.43a2.51,2.51,0,0,0-2.35-1.73h-3.54a2.58,2.58,0,0,0-2.48,2.65c0,2.08,2.62,2.32,5.51,2.86,3.54.68,7.49,1.67,7.49,6.88A7,7,0,0,1,172.73,104Z"/><path class="cls-1" d="M192.07,84.51V104h-4.46V84.51h-6.5V80.05h17.46v4.46Z"/><path class="cls-1" d="M217.22,95.3a8.73,8.73,0,0,1-17.46,0V88.8a8.73,8.73,0,1,1,17.46,0Zm-4.46-6.5a4.27,4.27,0,1,0-8.54,0v6.5a4.27,4.27,0,0,0,8.54,0Z"/><path class="cls-1" d="M226.45,94.28V104H222v-24h17.46v4.46h-13v5.31h13v4.46Z"/><path class="cls-1" d="M248.33,94.28V104h-4.46v-24h17.47v4.46h-13v5.31h13v4.46Z"/><path class="cls-1" d="M180.94,132.53v-11.1l-4.39,11.1h-4.09l-4.36-11.1v11.1h-4.46v-24h4.29l6.57,17.53,6.61-17.53h4.29v24Z"/><path class="cls-1" d="M204.46,132.53l-1.64-4.87h-8l-1.63,4.87h-4.7l8-24h4.7l8,24Zm-5.65-16.92-2.52,7.59h5.07Z"/><path class="cls-1" d="M225.63,132.53l-8.92-14.47v14.47h-4.46v-24h4.09l8.92,14.5v-14.5h4.46v24Z"/><path class="cls-1" d="M248.78,132.53l-1.64-4.87h-8l-1.63,4.87h-4.7l8-24h4.7l8,24Zm-5.65-16.92-2.52,7.59h5.07Z"/><path class="cls-1" d="M268.38,132.53v-1.12a8.56,8.56,0,0,1-4.29,1.12,8.72,8.72,0,0,1-8.71-8.71v-6.51a8.73,8.73,0,0,1,16.3-4.35l-3.88,2.21a4.34,4.34,0,0,0-3.71-2.15,4.29,4.29,0,0,0-4.25,4.29v6.51a4.27,4.27,0,0,0,8.54,0v-1h-4.29v-4.46h8.75v14.19Z"/><path class="cls-1" d="M277.78,132.53v-24h17.46V113h-13v5.32h13v4.46h-13v5.27h13v4.46Z"/><path class="cls-1" d="M314,132.53l-4.35-9.73h-5v9.73h-4.46v-24h10.49a7.06,7.06,0,0,1,7,7.11,7.27,7.27,0,0,1-3.54,6.2l4.8,10.65ZM310.66,113h-6v5.28h6a2.56,2.56,0,0,0,2.52-2.62A2.59,2.59,0,0,0,310.66,113Z"/><path class="cls-1" d="M91.72,148.42A56.29,56.29,0,1,1,148,92.13,56.36,56.36,0,0,1,91.72,148.42Zm0-101.14a44.85,44.85,0,1,0,44.85,44.85A44.9,44.9,0,0,0,91.72,47.28Z"/><polygon class="cls-1" points="62.74 113.62 62.74 106.14 76.75 92.13 62.74 78.11 62.74 70.63 70.22 70.63 91.72 92.13 70.22 113.62 62.74 113.62"/><polygon class="cls-1" points="120.7 70.63 120.7 78.11 106.69 92.12 120.71 106.14 120.71 113.62 113.23 113.62 91.72 92.12 113.23 70.63 120.7 70.63"/></svg>